<mxfile host="app.diagrams.net" modified="2022-10-31T20:44:08.322Z" agent="5.0 (Windows NT 10.0; Win64; x64) AppleWebKit/537.36 (KHTML, like Gecko) Chrome/106.0.0.0 Safari/537.36" etag="D1daU7AC2Ogz6LJ-Nfwn" version="20.5.1" type="github">
  <diagram id="So9W05aZkh12LMQrSw-Z" name="Pagina-1">
    <mxGraphModel dx="2382" dy="1219" grid="1" gridSize="10" guides="1" tooltips="1" connect="1" arrows="1" fold="1" page="0" pageScale="1" pageWidth="1169" pageHeight="827" math="0" shadow="0">
      <root>
        <mxCell id="0" />
        <mxCell id="1" parent="0" />
      </root>
    </mxGraphModel>
  </diagram>
</mxfile>
